<svg xmlns="http://www.w3.org/2000/svg" viewBox="0 0 25.31 25.33"><path d="M12.66,8.45c5.57,0,5.58,8.43,0,8.43s-5.59-8.43,0-8.43m0-2.28a6.5,6.5,0,1,0,6.49,6.49,6.5,6.5,0,0,0-6.49-6.49m6.75-1.78a1.52,1.52,0,1,0,1.52,1.52,1.52,1.52,0,0,0-1.52-1.52m-7.89-2.1C22.33,2.28,23.71,1.07,23,17.77,22.68,23.68,18.18,23,12.66,23,2.58,23,2.29,22.74,2.29,12.66S3.09,2.3,11.52,2.29ZM12.66,0C7.47,0,2.55-.45.67,4.38-.11,6.37,0,9,0,12.66,0,15.92-.1,19,.67,21c1.88,4.83,6.84,4.37,12,4.37,5,0,10.09.51,12-4.37.78-2,.66-4.56.66-8.29,0-4.94.27-8.13-2.12-10.52S17.47,0,12.65,0Z" style="fill:#fff"/></svg>