<svg xmlns="http://www.w3.org/2000/svg" viewBox="0 0 26.36 21.42"><path d="M26.36,2.54a11.44,11.44,0,0,1-3.12.85,5.37,5.37,0,0,0,2.38-3,10.8,10.8,0,0,1-3.43,1.31A5.4,5.4,0,0,0,12.85,5.4,5.55,5.55,0,0,0,13,6.64,15.28,15.28,0,0,1,1.84,1,5.38,5.38,0,0,0,3.49,8.21a5.4,5.4,0,0,1-2.44-.67V7.6a5.43,5.43,0,0,0,4.33,5.31A5.39,5.39,0,0,1,4,13.09a5,5,0,0,1-1-.09A5.45,5.45,0,0,0,8,16.76a10.84,10.84,0,0,1-6.7,2.3A10.91,10.91,0,0,1,0,19a15.24,15.24,0,0,0,8.29,2.43A15.28,15.28,0,0,0,23.67,6c0-.24,0-.47,0-.7a10.93,10.93,0,0,0,2.71-2.8" style="fill:#fff"/></svg>