<svg id="b6ab3a6f-d73f-40de-9979-6bf4f5a9d746" data-name="Capa 1" xmlns="http://www.w3.org/2000/svg" viewBox="0 0 512 512"><title>youtube</title><path d="M224.86,302.84,306.18,256l-81.32-46.84Z"/><path d="M256,6C118,6,6,118,6,256S118,506,256,506,506,394.05,506,256,394.05,6,256,6ZM412.21,256.26s0,50.7-6.43,75.15a39.14,39.14,0,0,1-27.54,27.53C353.79,365.38,256,365.38,256,365.38s-97.54,0-122.24-6.7a39.14,39.14,0,0,1-27.54-27.53C99.78,307,99.78,256,99.78,256s0-50.7,6.44-75.15a39.93,39.93,0,0,1,27.54-27.79c24.45-6.44,122.24-6.44,122.24-6.44s97.79,0,122.24,6.7a39.14,39.14,0,0,1,27.54,27.53C412.47,205.3,412.21,256.26,412.21,256.26Z"/></svg>